<svg width="33" height="33" viewBox="0 0 33 33" fill="none" xmlns="http://www.w3.org/2000/svg">
<path d="M6.30029 27.9361L9.75933 24.477M9.75933 24.477C10.3509 25.0686 11.0532 25.5379 11.8261 25.858C12.5991 26.1782 13.4275 26.343 14.2641 26.343C15.1007 26.343 15.9291 26.1782 16.7021 25.858C17.475 25.5379 18.1773 25.0686 18.7689 24.477C19.3604 23.8855 19.8297 23.1832 20.1499 22.4102C20.47 21.6373 20.6348 20.8089 20.6348 19.9723C20.6348 19.1357 20.47 18.3072 20.1499 17.5343C19.8297 16.7614 19.3604 16.0591 18.7689 15.4675C17.5741 14.2728 15.9537 13.6016 14.2641 13.6016C12.5745 13.6016 10.9541 14.2728 9.75933 15.4675C8.56459 16.6622 7.89339 18.2827 7.89339 19.9723C7.89339 21.6619 8.56459 23.2823 9.75933 24.477Z" stroke="#687AF6" stroke-width="1.5" stroke-linecap="round"/>
<path d="M3.43339 21.038C2.49171 19.4156 1.99706 17.5726 1.99989 15.6968C1.99989 9.78932 6.81358 5 12.7511 5H19.9186C25.8562 5 30.6699 9.78932 30.6699 15.6968C30.6699 20.3556 27.6782 24.3178 23.5024 25.7857" stroke="#687AF6" stroke-width="1.5" stroke-linecap="round"/>
</svg>
